<?xml version="1.0" encoding="utf-8"?>
<!-- Generator: Adobe Illustrator 19.2.1, SVG Export Plug-In . SVG Version: 6.00 Build 0)  -->
<svg version="1.1" id="Capa_1" xmlns="http://www.w3.org/2000/svg" xmlns:xlink="http://www.w3.org/1999/xlink" x="0px" y="0px"
	 viewBox="0 0 402.7 281.6" style="enable-background:new 0 0 402.7 281.6;" xml:space="preserve">
<path d="M235.5,226.7c0-45.2-37-61.7-65.8-61.7c-22.1,0-43,10-55.8,28.2c-2.6-13.5-12.6-16.2-19.3-17.4c-7.7-1.4-18.4-0.4-19.8,13.1
	c-1.4,13.5,13.4,12.6,13.4,12.6c9,1.4,9.6-5.1,9.6-5.1s7.5,12.2-10.6,13.9c-18,1.7-23.6-20.6-18.8-49.2c4.8-28.6,85.8-5.1,85.8-5.1
	s90.2,1.6,159.1,54.8c0,0,42.8-40.8-86.2-62c0,0,17.5-6.4,96.1,10c78.6,16.4,79.5-17.3,79.5-17.3s-1.5-33.8-80.1-17.4
	c-78.6,16.4-96.1,10-96.1,10c129-21.1,86.2-62,86.2-62c-69,53.1-157,55.1-157,55.1s-83.1,23-87.9-5.6C62.9,93,68.6,70.7,86.6,72.5
	c18,1.7,10.6,13.9,10.6,13.9s-0.6-6.5-9.6-5.1c0,0-14.8-0.9-13.4,12.6c1.4,13.5,12.1,14.6,19.8,13.1c6.9-1.3,17.4-4.2,19.5-19.1
	c12.8,18.6,33.9,28.7,56.1,28.7c28.8,0,65.8-16.4,65.8-61.7C235.5,5.5,190.2,0,183.4,0c-12.3,0-45.3,8.2-45.3,43.9
	c0,30.2,22,34.3,27.5,34.3c13.7,0,22-6.9,22-17.8c0-9.6-6.9-15.1-15.1-15.1c-6.8,0-10.9,6.9-12.3,9.6c-5.5-2.7-6.8-9.6-6.8-15.1
	c0-11,8.2-26.1,28.8-26.1c31.5,0,37,28.8,37,41.1c0,19.2-12.3,45.3-49.3,45.3c-21.9,0-45.5-17.6-57.8-28.3c-4.3-9.8-15-15.5-28.4-14
	c-11.6,1.3-23.2,4.9-27.4,28.2c-6.3-17.3-16.7-20.7-21.2-22.2C27.3,61.3,3.3,59,0.3,85.9c-3,26.9,17.2,27.7,17.2,27.7
	s28.5-2.2,16.6-26.4c0,0,4.2-15.3,9.9,11c5.7,26.3,0.8,43.2,0.8,43.2s5.5,16.9-0.2,43.2c-5.7,26.3-9.9,11-9.9,11
	c11.9-24.2-16.6-26.5-16.6-26.5s-20.2,0.8-17.2,27.7c3,26.9,27,24.6,34.5,22.1c4.5-1.5,14.7-4.9,20.8-22.1
	c4.3,23.3,16.2,26.9,27.8,28.2c9.7,1.1,17.9-1.5,23.4-6.7c0.1,0,0.1,0,0.2,0c10.9-12.8,35.9-38.2,62.2-38.2
	c37,0,49.3,27.5,49.3,46.6c0,12.4-5.5,41.2-37,41.2c-20.6,0-28.8-15.1-28.8-26.1c0-5.5,1.3-12.3,6.8-16.4
	c1.4,4.1,5.5,10.9,12.3,10.9c8.2,0,15.1-5.5,15.1-16.4c0-9.6-8.3-16.4-22-16.4c-5.5,0-27.5,4.1-27.5,34.3
	c0,35.6,32.9,43.9,45.3,43.9C190.2,281.6,235.5,276.1,235.5,226.7z"/>
</svg>
