<?xml version="1.0" encoding="utf-8"?>
<!-- Generator: Adobe Illustrator 19.2.1, SVG Export Plug-In . SVG Version: 6.00 Build 0)  -->
<svg version="1.1" id="Слой_1" xmlns="http://www.w3.org/2000/svg" xmlns:xlink="http://www.w3.org/1999/xlink" x="0px" y="0px"
	 viewBox="0 0 388.3 88.3" style="enable-background:new 0 0 388.3 88.3;" xml:space="preserve">
<style type="text/css">
	.st0{fill:#575756;}
	.st1{fill:#FFFFFF;}
	.st2{fill-rule:evenodd;clip-rule:evenodd;fill:#B39587;}
</style>
<path class="st0" d="M26.9,33.6c0-6.1,5-8.4,8.9-8.4c3,0,5.8,1.3,7.6,3.8c0.4-1.8,1.7-2.2,2.6-2.4c1-0.2,2.5,0,2.7,1.8
	c0.2,1.8-1.8,1.7-1.8,1.7c-1.2,0.2-1.3-0.7-1.3-0.7s-1,1.7,1.4,1.9c2.4,0.2,3.2-2.8,2.6-6.7c-0.7-3.9-11.6-0.7-11.6-0.7
	s-12.2,0.2-21.6,7.4c0,0-5.8-5.5,11.7-8.4c0,0-2.4-0.9-13,1.4C4.3,26.7,4.2,22.1,4.2,22.1s0.2-4.6,10.9-2.4c10.7,2.2,13,1.3,13,1.3
	c-17.5-2.9-11.7-8.4-11.7-8.4c9.3,7.2,21.3,7.5,21.3,7.5s11.3,3.1,11.9-0.8c0.7-3.9-0.1-6.9-2.6-6.7c-2.4,0.2-1.4,1.9-1.4,1.9
	s0.1-0.9,1.3-0.7c0,0,2-0.1,1.8,1.7c-0.2,1.8-1.6,2-2.7,1.8c-0.9-0.2-2.4-0.6-2.6-2.6c-1.7,2.5-4.6,3.9-7.6,3.9
	c-3.9,0-8.9-2.2-8.9-8.4c0-6.7,6.1-7.4,7.1-7.4c1.7,0,6.1,1.1,6.1,6c0,4.1-3,4.6-3.7,4.6c-1.9,0-3-0.9-3-2.4c0-1.3,0.9-2,2.1-2
	c0.9,0,1.5,0.9,1.7,1.3c0.7-0.4,0.9-1.3,0.9-2c0-1.5-1.1-3.5-3.9-3.5c-4.3,0-5,3.9-5,5.6c0,2.6,1.7,6.1,6.7,6.1c3,0,6.2-2.4,7.8-3.8
	c0.6-1.3,2-2.1,3.9-1.9c1.6,0.2,3.1,0.7,3.7,3.8c0.9-2.3,2.3-2.8,2.9-3c1-0.3,4.3-0.7,4.7,3c0.4,3.6-2.3,3.8-2.3,3.8
	s-3.9-0.3-2.3-3.6c0,0-0.6-2.1-1.3,1.5c-0.8,3.6-0.1,5.9-0.1,5.9s-0.7,2.3,0,5.9c0.8,3.6,1.3,1.5,1.3,1.5c-1.6-3.3,2.2-3.6,2.2-3.6
	s2.7,0.1,2.3,3.8c-0.4,3.6-3.7,3.3-4.7,3c-0.6-0.2-2-0.7-2.8-3c-0.6,3.2-2.2,3.6-3.8,3.8c-1.3,0.1-2.4-0.2-3.2-0.9c0,0,0,0,0,0
	c-1.5-1.7-4.9-5.2-8.4-5.2c-5,0-6.7,3.7-6.7,6.3c0,1.7,0.7,5.6,5,5.6c2.8,0,3.9-2.1,3.9-3.5c0-0.7-0.2-1.7-0.9-2.2
	c-0.2,0.6-0.7,1.5-1.7,1.5c-1.1,0-2.1-0.7-2.1-2.2c0-1.3,1.1-2.2,3-2.2c0.7,0,3.7,0.6,3.7,4.6c0,4.8-4.5,5.9-6.1,5.9
	C33,41.1,26.9,40.3,26.9,33.6z"/>
<path class="st1" d="M85.9,33.6c0-6.1,5-8.4,8.9-8.4c3,0,5.8,1.3,7.6,3.8c0.4-1.8,1.7-2.2,2.6-2.4c1-0.2,2.5,0,2.7,1.8
	c0.2,1.8-1.8,1.7-1.8,1.7c-1.2,0.2-1.3-0.7-1.3-0.7s-1,1.7,1.4,1.9c2.4,0.2,3.2-2.8,2.6-6.7c-0.7-3.9-11.6-0.7-11.6-0.7
	s-12.2,0.2-21.6,7.4c0,0-5.8-5.5,11.7-8.4c0,0-2.4-0.9-13,1.4c-10.7,2.2-10.8-2.3-10.8-2.3s0.2-4.6,10.9-2.4c10.7,2.2,13,1.3,13,1.3
	c-17.5-2.9-11.7-8.4-11.7-8.4c9.3,7.2,21.3,7.5,21.3,7.5s11.3,3.1,11.9-0.8c0.7-3.9-0.1-6.9-2.6-6.7c-2.4,0.2-1.4,1.9-1.4,1.9
	s0.1-0.9,1.3-0.7c0,0,2-0.1,1.8,1.7c-0.2,1.8-1.6,2-2.7,1.8c-0.9-0.2-2.4-0.6-2.6-2.6c-1.7,2.5-4.6,3.9-7.6,3.9
	c-3.9,0-8.9-2.2-8.9-8.4c0-6.7,6.1-7.4,7.1-7.4c1.7,0,6.1,1.1,6.1,6c0,4.1-3,4.6-3.7,4.6c-1.9,0-3-0.9-3-2.4c0-1.3,0.9-2,2.1-2
	c0.9,0,1.5,0.9,1.7,1.3c0.7-0.4,0.9-1.3,0.9-2c0-1.5-1.1-3.5-3.9-3.5c-4.3,0-5,3.9-5,5.6c0,2.6,1.7,6.1,6.7,6.1c3,0,6.2-2.4,7.8-3.8
	c0.6-1.3,2-2.1,3.9-1.9c1.6,0.2,3.1,0.7,3.7,3.8c0.9-2.3,2.3-2.8,2.9-3c1-0.3,4.3-0.7,4.7,3c0.4,3.6-2.3,3.8-2.3,3.8
	s-3.9-0.3-2.3-3.6c0,0-0.6-2.1-1.3,1.5c-0.8,3.6-0.1,5.9-0.1,5.9s-0.7,2.3,0,5.9c0.8,3.6,1.3,1.5,1.3,1.5c-1.6-3.3,2.2-3.6,2.2-3.6
	s2.7,0.1,2.3,3.8c-0.4,3.6-3.7,3.3-4.7,3c-0.6-0.2-2-0.7-2.8-3c-0.6,3.2-2.2,3.6-3.8,3.8c-1.3,0.1-2.4-0.2-3.2-0.9c0,0,0,0,0,0
	c-1.5-1.7-4.9-5.2-8.4-5.2c-5,0-6.7,3.7-6.7,6.3c0,1.7,0.7,5.6,5,5.6c2.8,0,3.9-2.1,3.9-3.5c0-0.7-0.2-1.7-0.9-2.2
	c-0.2,0.6-0.7,1.5-1.7,1.5c-1.1,0-2.1-0.7-2.1-2.2c0-1.3,1.1-2.2,3-2.2c0.7,0,3.7,0.6,3.7,4.6c0,4.8-4.5,5.9-6.1,5.9
	C92,41.1,85.9,40.3,85.9,33.6z"/>
<path class="st0" d="M36.1,77.6c0-6.1-5-8.4-8.9-8.4c-3,0-5.8,1.3-7.6,3.8c-0.4-1.8-1.7-2.2-2.6-2.4c-1-0.2-2.5,0-2.7,1.8
	c-0.2,1.8,1.8,1.7,1.8,1.7c1.2,0.2,1.3-0.7,1.3-0.7s1,1.7-1.4,1.9c-2.4,0.2-3.2-2.8-2.6-6.7c0.7-3.9,11.6-0.7,11.6-0.7
	s12.2,0.2,21.6,7.4c0,0,5.8-5.5-11.7-8.4c0,0,2.4-0.9,13,1.4c10.7,2.2,10.8-2.3,10.8-2.3s-0.2-4.6-10.9-2.4c-10.7,2.2-13,1.3-13,1.3
	c17.5-2.9,11.7-8.4,11.7-8.4c-9.3,7.2-21.3,7.5-21.3,7.5S14,67.3,13.4,63.4c-0.7-3.9,0.1-6.9,2.6-6.7c2.4,0.2,1.4,1.9,1.4,1.9
	s-0.1-0.9-1.3-0.7c0,0-2-0.1-1.8,1.7c0.2,1.8,1.6,2,2.7,1.8c0.9-0.2,2.4-0.6,2.6-2.6c1.7,2.5,4.6,3.9,7.6,3.9c3.9,0,8.9-2.2,8.9-8.4
	c0-6.7-6.1-7.4-7.1-7.4c-1.7,0-6.1,1.1-6.1,6c0,4.1,3,4.6,3.7,4.6c1.9,0,3-0.9,3-2.4c0-1.3-0.9-2-2.1-2c-0.9,0-1.5,0.9-1.7,1.3
	c-0.7-0.4-0.9-1.3-0.9-2c0-1.5,1.1-3.5,3.9-3.5c4.3,0,5,3.9,5,5.6c0,2.6-1.7,6.1-6.7,6.1c-3,0-6.2-2.4-7.8-3.8
	c-0.6-1.3-2-2.1-3.9-1.9c-1.6,0.2-3.1,0.7-3.7,3.8c-0.9-2.3-2.3-2.8-2.9-3c-1-0.3-4.3-0.7-4.7,3c-0.4,3.6,2.3,3.8,2.3,3.8
	s3.9-0.3,2.3-3.6c0,0,0.6-2.1,1.3,1.5c0.8,3.6,0.1,5.9,0.1,5.9s0.7,2.3,0,5.9c-0.8,3.6-1.3,1.5-1.3,1.5c1.6-3.3-2.2-3.6-2.2-3.6
	s-2.7,0.1-2.3,3.8c0.4,3.6,3.7,3.3,4.7,3c0.6-0.2,2-0.7,2.8-3c0.6,3.2,2.2,3.6,3.8,3.8c1.3,0.1,2.4-0.2,3.2-0.9c0,0,0,0,0,0
	c1.5-1.7,4.9-5.2,8.4-5.2c5,0,6.7,3.7,6.7,6.3c0,1.7-0.7,5.6-5,5.6c-2.8,0-3.9-2.1-3.9-3.5c0-0.7,0.2-1.7,0.9-2.2
	c0.2,0.6,0.7,1.5,1.7,1.5c1.1,0,2.1-0.7,2.1-2.2c0-1.3-1.1-2.2-3-2.2c-0.7,0-3.7,0.6-3.7,4.6c0,4.8,4.5,5.9,6.1,5.9
	C30,85.1,36.1,84.3,36.1,77.6z"/>
<path class="st1" d="M96.1,77.6c0-6.1-5-8.4-8.9-8.4c-3,0-5.8,1.3-7.6,3.8c-0.4-1.8-1.7-2.2-2.6-2.4c-1-0.2-2.5,0-2.7,1.8
	c-0.2,1.8,1.8,1.7,1.8,1.7c1.2,0.2,1.3-0.7,1.3-0.7s1,1.7-1.4,1.9c-2.4,0.2-3.2-2.8-2.6-6.7c0.7-3.9,11.6-0.7,11.6-0.7
	s12.2,0.2,21.6,7.4c0,0,5.8-5.5-11.7-8.4c0,0,2.4-0.9,13,1.4c10.7,2.2,10.8-2.3,10.8-2.3s-0.2-4.6-10.9-2.4c-10.7,2.2-13,1.3-13,1.3
	c17.5-2.9,11.7-8.4,11.7-8.4c-9.3,7.2-21.3,7.5-21.3,7.5S74,67.3,73.4,63.4c-0.7-3.9,0.1-6.9,2.6-6.7c2.4,0.2,1.4,1.9,1.4,1.9
	s-0.1-0.9-1.3-0.7c0,0-2-0.1-1.8,1.7c0.2,1.8,1.6,2,2.7,1.8c0.9-0.2,2.4-0.6,2.6-2.6c1.7,2.5,4.6,3.9,7.6,3.9c3.9,0,8.9-2.2,8.9-8.4
	c0-6.7-6.1-7.4-7.1-7.4c-1.7,0-6.1,1.1-6.1,6c0,4.1,3,4.6,3.7,4.6c1.9,0,3-0.9,3-2.4c0-1.3-0.9-2-2.1-2c-0.9,0-1.5,0.9-1.7,1.3
	c-0.7-0.4-0.9-1.3-0.9-2c0-1.5,1.1-3.5,3.9-3.5c4.3,0,5,3.9,5,5.6c0,2.6-1.7,6.1-6.7,6.1c-3,0-6.2-2.4-7.8-3.8
	c-0.6-1.3-2-2.1-3.9-1.9c-1.6,0.2-3.1,0.7-3.7,3.8c-0.9-2.3-2.3-2.8-2.9-3c-1-0.3-4.3-0.7-4.7,3c-0.4,3.6,2.3,3.8,2.3,3.8
	s3.9-0.3,2.3-3.6c0,0,0.6-2.1,1.3,1.5c0.8,3.6,0.1,5.9,0.1,5.9s0.7,2.3,0,5.9c-0.8,3.6-1.3,1.5-1.3,1.5c1.6-3.3-2.2-3.6-2.2-3.6
	s-2.7,0.1-2.3,3.8c0.4,3.6,3.7,3.3,4.7,3c0.6-0.2,2-0.7,2.8-3c0.6,3.2,2.2,3.6,3.8,3.8c1.3,0.1,2.4-0.2,3.2-0.9c0,0,0,0,0,0
	c1.5-1.7,4.9-5.2,8.4-5.2c5,0,6.7,3.7,6.7,6.3c0,1.7-0.7,5.6-5,5.6c-2.8,0-3.9-2.1-3.9-3.5c0-0.7,0.2-1.7,0.9-2.2
	c0.2,0.6,0.7,1.5,1.7,1.5c1.1,0,2.1-0.7,2.1-2.2c0-1.3-1.1-2.2-3-2.2c-0.7,0-3.7,0.6-3.7,4.6c0,4.8,4.5,5.9,6.1,5.9
	C90,85.1,96.1,84.3,96.1,77.6z"/>
<g>
	<path class="st2" d="M245.7,24.6c0,1,0.3,1.8,0.9,2.4c0.6,0.6,1.4,1,2.3,1.1c0.9,0.1,1.8,0,2.7-0.4c1-0.4,1.8-1.2,2.5-2.2
		c0.2,0.5,0.2,0.9,0.1,1.4c-0.1,0.4-0.3,0.9-0.5,1.3c-0.2,0.5-0.5,0.9-0.7,1.4c-0.2,0.4-0.4,0.9-0.4,1.3c-0.1,0.9,0,1.7,0.5,2.5
		c0.4,0.8,0.9,1.4,1.6,1.9c0.8-0.2,1.4-0.7,1.8-1.5c0.4-0.8,0.8-1.6,1.1-2.3c0.2-0.5,0.3-1,0.3-1.6c0-0.6,0-1.2,0-1.7
		c0-0.5,0-1,0-1.3c0-0.4,0.2-0.6,0.4-0.7c0.3,0,0.5,0,0.6,0.2c0.2,0.2,0.3,0.4,0.5,0.6c0.2,0.3,0.4,0.6,0.5,0.9
		c0.2,0.3,0.5,0.5,0.8,0.7c0.8,0.5,1.6,0.5,2.4,0.2c0.8-0.3,1.5-0.9,2-1.8c-1.4-0.5-2.5-1.1-3.4-1.9c-0.9-0.8-1.6-1.5-2.2-2.4
		c-0.5-0.8-1-1.7-1.2-2.6c-0.3-0.9-0.4-1.7-0.4-2.4c-0.2,0.2-0.6,0.3-1.2,0.5c-0.6,0.1-1.1,0.2-1.5,0.1c1,2.2,1.6,4.5,1.7,6.8
		c0.1,2.3-0.4,4.2-1.3,5.7c0.3-1,0.5-2.2,0.5-3.4c0.1-1.2,0-2.4-0.1-3.5c-0.2-1.1-0.5-2.2-0.9-3.3c-0.4-1-1-2-1.7-2.8
		c0.1,1.3,0,2.6-0.4,3.6c-0.3,1-0.9,1.9-1.6,2.6c-0.7,0.6-1.6,1-2.6,1.2C248.1,25.3,247,25.1,245.7,24.6z"/>
	<path class="st2" d="M255.4,16.4c1,0,1.8-0.4,2.5-1c0.7-0.7,1-1.5,1-2.4c0-1-0.3-1.8-1-2.5c-0.7-0.7-1.5-1-2.5-1s-1.8,0.4-2.5,1
		c-0.7,0.7-1,1.6-1,2.5c0,0.9,0.4,1.7,1,2.4C253.6,16,254.4,16.4,255.4,16.4z M255.2,10.9c0.4,0,0.5,0.1,0.5,0.5
		c0,0.4-0.2,0.6-0.5,0.6c-0.3,0-0.5-0.2-0.5-0.6C254.7,11,254.9,10.9,255.2,10.9z"/>
	<path class="st2" d="M286.7,13.2c0.6,0.8,0.8,1.6,0.8,2.4c0,0.6-0.1,1.1-0.4,1.6c-0.3,0.5-0.6,1-1,1.4c-0.3,0.5-0.6,0.9-0.9,1.3
		c-0.2,0.5-0.4,0.9-0.3,1.5c0.1,0.5,0.4,0.8,0.7,1.1c0.4,0.3,0.9,0.5,1.4,0.5c0.5,0.1,1.1,0.1,1.8,0c0.6-0.1,1.2-0.3,1.6-0.6
		c0.9-0.6,1.6-1.4,2-2.4c0.5-1,0.3-2-0.4-3.1c-0.1,0.7-0.4,1.4-0.8,2.1c-0.4,0.7-0.8,1.2-1.3,1.7c-0.5,0.5-1,0.8-1.6,1
		c-0.5,0.2-1.1,0.1-1.7-0.2c1.2-0.1,2.2-0.6,3.1-1.6c0.9-1,1.3-2.1,1.2-3.6c0-0.7-0.2-1.4-0.5-2.1c-0.4-0.6-0.8-1.2-1.4-1.7
		c-0.6-0.5-1.2-0.9-2.1-1.1c-0.8-0.3-1.6-0.3-2.4-0.1C285.4,11.7,286.1,12.3,286.7,13.2z"/>
	<path class="st2" d="M276.1,16.7c-1.3,0.6-2.8,1.1-4.6,1.3c-1.8,0.2-3.7,0.2-5.7-0.1c-2.1-0.3-4-0.9-5.9-1.9c1.2,1.1,2.5,2,3.9,2.4
		c1.4,0.5,2.9,0.7,4.5,0.7c1.6,0,3.1-0.1,4.8-0.3c1.6-0.3,3.2-0.6,4.8-0.9c1.6-0.4,3.1-0.7,4.7-1c1.5-0.3,2.9-0.4,4.2-0.4
		c0.3-0.6,0.2-1.4-0.2-2.2c-0.4-0.9-0.9-1.6-1.6-2.1c-0.4-0.3-0.9-0.5-1.3-0.4c-0.5,0-0.9,0.1-1.4,0.2c-0.5,0.1-1,0.2-1.4,0.3
		c-0.5,0.1-0.9,0-1.3-0.1c0.4-0.5,0.6-1.1,0.5-1.7c-0.1-0.6-0.5-1-1.3-1c-0.4,0.7-0.9,1.4-1.4,2c-0.5,0.6-1.1,1.2-1.9,1.7
		c-0.8,0.5-1.8,0.9-3,1.2c-1.2,0.3-2.7,0.5-4.5,0.5c-1.5,0-2.7-0.1-3.7-0.6c-1-0.5-2.1-1.1-3.2-1.8c0.1,0.2,0.1,0.5,0.1,0.8
		c0,0.4-0.1,0.6-0.2,0.9c1,0.8,2.2,1.5,3.6,2.1c1.4,0.6,2.9,0.9,4.6,0.9c1.8,0,3.6-0.2,5.4-0.7c1.8-0.5,3.1-1.2,4.1-2
		C278.2,15.3,277.4,16,276.1,16.7z"/>
	<path class="st2" d="M130.2,17.4c1,0,1.8-0.4,2.5-1c0.5-0.5,0.8-1.1,0.9-1.7l83.8,1.4c-0.5-1,0.2-2.3,1-3.4l-84.7,1.2
		c0-0.9-0.3-1.8-1-2.4c-0.7-0.7-1.5-1-2.5-1c-1,0-1.8,0.4-2.5,1c-0.7,0.7-1,1.6-1,2.5c0,0.9,0.4,1.7,1,2.4
		C128.4,17,129.2,17.4,130.2,17.4z M130,11.9c0.4,0,0.5,0.1,0.5,0.5c0,0.4-0.2,0.6-0.5,0.6c-0.3,0-0.5-0.2-0.5-0.6
		C129.5,12.1,129.7,11.9,130,11.9z"/>
	<path class="st2" d="M218.5,20c0.4,1,1.1,1.8,2.1,2.4c0.5,0.3,1,0.5,1.6,0.5c0.6,0.1,1.2,0.1,1.8,0c0.5-0.1,1-0.3,1.4-0.5
		c0.4-0.3,0.6-0.6,0.7-1.1c0-0.5,0-1-0.3-1.4c-0.2-0.5-0.5-0.9-0.9-1.4c-0.3-0.5-0.6-0.9-0.9-1.4c-0.3-0.5-0.5-1-0.5-1.6
		c0-0.7,0.2-1.5,0.8-2.4c0.6-0.9,1.3-1.5,2.1-2c-0.8-0.2-1.6-0.2-2.4,0.1c-0.8,0.3-1.5,0.6-2.1,1.1c-0.6,0.5-1,1.1-1.4,1.8
		c-0.4,0.6-0.5,1.3-0.5,2.1c0,1.4,0.4,2.6,1.2,3.6c0.9,1,1.9,1.5,3.1,1.6c-0.5,0.3-1.1,0.4-1.6,0.2c-0.6-0.2-1.1-0.5-1.6-1
		c-0.5-0.5-1-1-1.3-1.7c-0.4-0.6-0.6-1.3-0.8-2C218.2,18,218,19,218.5,20z"/>
	<path class="st2" d="M224.4,14.3c-0.4,0.9-0.5,1.6-0.2,2.3c1.3,0,2.7,0.1,4.2,0.4c1.5,0.3,3.1,0.6,4.7,0.9c1.6,0.4,3.2,0.6,4.8,0.9
		c1.6,0.2,3.2,0.4,4.8,0.3c1.6,0,3.1-0.2,4.5-0.7c1.4-0.5,2.7-1.3,3.9-2.5c-1.9,1-3.8,1.6-5.8,1.9c-2.1,0.3-4,0.3-5.8,0.1
		c-1.8-0.2-3.3-0.6-4.6-1.3c-1.3-0.7-2.1-1.4-2.4-2.2c1,0.8,2.3,1.5,4.2,2c1.8,0.5,3.6,0.7,5.4,0.7c1.6,0,3.2-0.3,4.6-0.9
		c1.4-0.6,2.6-1.3,3.6-2.1c-0.1-0.2-0.1-0.5-0.2-0.8c0-0.3,0-0.6,0.1-0.8c-1.2,0.7-2.2,1.3-3.3,1.7c-1,0.5-2.2,0.7-3.7,0.7
		c-1.8,0-3.3-0.2-4.5-0.5c-1.2-0.4-2.2-0.8-3-1.3c-0.8-0.5-1.4-1-1.9-1.7c-0.5-0.6-1-1.3-1.4-2c-0.8,0.1-1.3,0.4-1.4,1
		c-0.1,0.6,0,1.1,0.5,1.6c-0.4,0.2-0.9,0.2-1.3,0.1c-0.5-0.1-0.9-0.2-1.4-0.3c-0.5-0.1-1-0.2-1.4-0.2c-0.5,0-0.9,0.1-1.3,0.4
		C225.3,12.7,224.7,13.4,224.4,14.3z"/>
	<path class="st2" d="M292.6,16l83.7-1.4c0,0.9,0.4,1.7,1,2.4c0.7,0.7,1.6,1,2.6,1c1,0,1.8-0.3,2.5-1c0.7-0.7,1-1.5,1-2.4
		c0-1-0.3-1.8-1-2.5c-0.7-0.7-1.5-1-2.5-1c-1,0-1.9,0.3-2.6,1c-0.4,0.5-0.7,1-0.9,1.6l-84.8-1.2C292.4,13.8,293.1,15.1,292.6,16z
		 M380,12.7c0.3,0,0.5,0.2,0.5,0.5c0,0.4-0.2,0.5-0.5,0.5c-0.4,0-0.5-0.2-0.5-0.5C379.5,12.8,379.6,12.7,380,12.7z"/>
	<path class="st2" d="M286.6,73.7c0.4-0.9,0.5-1.6,0.2-2.2c-1.3,0-2.7-0.1-4.2-0.4c-1.6-0.3-3.1-0.6-4.7-1c-1.6-0.3-3.2-0.6-4.8-0.9
		c-1.6-0.2-3.2-0.4-4.8-0.3c-1.6,0-3.1,0.3-4.5,0.7c-1.4,0.5-2.7,1.3-3.9,2.4c1.9-1,3.8-1.6,5.9-1.9c2.1-0.3,4-0.3,5.7-0.1
		c1.8,0.2,3.3,0.6,4.6,1.3c1.3,0.6,2.1,1.4,2.4,2.2c-1-0.8-2.4-1.5-4.1-2c-1.8-0.5-3.6-0.7-5.4-0.7c-1.6,0-3.2,0.3-4.6,0.9
		c-1.4,0.6-2.6,1.3-3.6,2.1c0.1,0.2,0.1,0.5,0.2,0.9c0,0.3,0,0.6-0.1,0.8c1.1-0.7,2.2-1.3,3.2-1.8c1-0.5,2.3-0.7,3.7-0.6
		c1.8,0,3.3,0.2,4.5,0.5c1.2,0.3,2.2,0.7,3,1.2c0.8,0.5,1.4,1.1,1.9,1.7c0.5,0.6,1,1.3,1.4,2c0.8-0.1,1.2-0.5,1.3-1
		c0.1-0.6,0-1.2-0.5-1.7c0.4-0.2,0.9-0.2,1.3-0.1c0.5,0.1,0.9,0.2,1.4,0.3c0.5,0.1,0.9,0.2,1.4,0.2c0.5,0,0.9-0.1,1.3-0.4
		C285.6,75.3,286.2,74.6,286.6,73.7z"/>
	<path class="st2" d="M255.4,71.6c-1,0-1.8,0.4-2.5,1c-0.7,0.7-1,1.5-1,2.4c0,1,0.4,1.8,1,2.5c0.7,0.7,1.5,1,2.5,1s1.8-0.4,2.5-1
		c0.7-0.7,1-1.6,1-2.5c0-0.9-0.3-1.7-1-2.4C257.2,72,256.4,71.6,255.4,71.6z M255.2,77.1c-0.3,0-0.5-0.1-0.5-0.5
		c0-0.4,0.1-0.6,0.5-0.6c0.4,0,0.5,0.2,0.5,0.6C255.7,77,255.5,77.1,255.2,77.1z"/>
	<path class="st2" d="M261.9,63c0.9-0.8,2-1.4,3.4-1.9c-0.5-0.9-1.2-1.5-2-1.8c-0.8-0.3-1.6-0.2-2.4,0.2c-0.3,0.1-0.6,0.4-0.8,0.7
		c-0.2,0.3-0.4,0.5-0.5,0.9c-0.2,0.3-0.3,0.5-0.5,0.6c-0.1,0.2-0.3,0.2-0.6,0.2c-0.2,0-0.4-0.3-0.4-0.7c0-0.4,0-0.8,0-1.3
		c0-0.5,0-1.1,0-1.7c0-0.6-0.1-1.1-0.3-1.6c-0.3-0.8-0.7-1.5-1.1-2.3c-0.4-0.8-1-1.3-1.8-1.5c-0.7,0.5-1.2,1.1-1.6,1.9
		c-0.5,0.8-0.6,1.6-0.5,2.5c0,0.5,0.2,0.9,0.4,1.3c0.2,0.5,0.5,0.9,0.7,1.4c0.2,0.5,0.4,0.9,0.5,1.3c0.1,0.5,0.1,0.9-0.1,1.4
		c-0.7-1-1.6-1.8-2.5-2.2c-1-0.4-1.9-0.5-2.7-0.4c-0.9,0.1-1.6,0.5-2.3,1.1c-0.6,0.6-0.9,1.4-0.9,2.4c1.3-0.5,2.4-0.8,3.4-0.6
		c1,0.1,1.9,0.5,2.6,1.2c0.7,0.6,1.3,1.5,1.6,2.6c0.4,1,0.5,2.3,0.4,3.6c0.7-0.8,1.3-1.7,1.7-2.8c0.4-1,0.7-2.1,0.9-3.3
		c0.1-1.1,0.2-2.3,0.1-3.5c-0.1-1.2-0.3-2.3-0.5-3.4c1,1.5,1.4,3.4,1.3,5.7c-0.1,2.3-0.7,4.6-1.7,6.8c0.4-0.1,0.9,0,1.5,0.1
		c0.5,0.2,1,0.3,1.2,0.5c0-0.7,0.1-1.5,0.4-2.4c0.2-0.9,0.6-1.7,1.2-2.6C260.3,64.5,261,63.8,261.9,63z"/>
	<path class="st2" d="M288.4,66.3c0.5,0.2,1,0.5,1.6,1c0.5,0.5,0.9,1,1.3,1.7c0.4,0.7,0.6,1.3,0.8,2.1c0.7-1.1,0.8-2.1,0.4-3.1
		c-0.4-1-1.1-1.8-2-2.4c-0.5-0.3-1-0.5-1.6-0.6c-0.6-0.1-1.2-0.1-1.8,0c-0.5,0.1-1,0.3-1.4,0.5c-0.4,0.3-0.6,0.6-0.7,1.1
		c0,0.5,0.1,1,0.3,1.5c0.3,0.4,0.5,0.9,0.9,1.3c0.3,0.5,0.6,1,1,1.4c0.3,0.5,0.4,1,0.4,1.6c0,0.7-0.2,1.5-0.8,2.4
		c-0.6,0.9-1.3,1.5-2.1,2c0.8,0.2,1.6,0.1,2.4-0.1c0.8-0.2,1.5-0.6,2.1-1.1c0.6-0.5,1-1.1,1.4-1.7c0.4-0.7,0.5-1.4,0.5-2.1
		c0-1.5-0.4-2.6-1.2-3.6c-0.9-1-1.9-1.5-3.1-1.6C287.3,66.2,287.9,66.1,288.4,66.3z"/>
	<path class="st2" d="M379.8,69.9c-1,0-1.9,0.3-2.6,1c-0.6,0.7-1,1.5-1,2.4L292.6,72c0.5,1-0.2,2.3-1,3.4l84.8-1.2
		c0.1,0.6,0.4,1.2,0.9,1.6c0.7,0.7,1.6,1,2.6,1c1,0,1.8-0.3,2.5-1c0.7-0.7,1-1.5,1-2.5c0-0.9-0.3-1.7-1-2.4
		C381.6,70.2,380.8,69.9,379.8,69.9z M380,75.3c-0.4,0-0.5-0.2-0.5-0.5c0-0.4,0.2-0.5,0.5-0.5c0.3,0,0.5,0.2,0.5,0.5
		C380.5,75.2,380.3,75.3,380,75.3z"/>
	<path class="st2" d="M224.3,74.8c-0.5-0.9-0.8-1.6-0.8-2.4c0-0.6,0.1-1.1,0.5-1.6c0.3-0.5,0.6-1,0.9-1.4c0.3-0.5,0.6-0.9,0.9-1.4
		c0.3-0.4,0.4-0.9,0.3-1.4c-0.1-0.5-0.3-0.8-0.7-1.1c-0.4-0.3-0.9-0.5-1.4-0.5c-0.5-0.1-1.1-0.1-1.8,0c-0.6,0.1-1.1,0.3-1.6,0.5
		c-1,0.6-1.6,1.4-2.1,2.4c-0.5,1-0.3,2,0.4,3.1c0.1-0.7,0.4-1.4,0.8-2c0.4-0.7,0.8-1.3,1.3-1.7c0.5-0.5,1-0.8,1.6-1
		c0.5-0.2,1.1-0.1,1.6,0.2c-1.1,0.1-2.2,0.6-3.1,1.6c-0.9,1-1.3,2.1-1.2,3.6c0,0.7,0.2,1.4,0.5,2.1c0.4,0.7,0.8,1.3,1.4,1.8
		c0.6,0.5,1.3,0.9,2.1,1.1c0.8,0.3,1.6,0.3,2.4,0.1C225.5,76.3,224.9,75.7,224.3,74.8z"/>
	<path class="st2" d="M234.8,71.3c1.3-0.6,2.8-1,4.6-1.3c1.8-0.2,3.7-0.1,5.8,0.1c2.1,0.3,4,0.9,5.8,1.9c-1.2-1.2-2.5-2-3.9-2.5
		c-1.4-0.5-2.9-0.7-4.5-0.7c-1.6,0-3.1,0.1-4.8,0.3c-1.6,0.3-3.2,0.5-4.8,0.9c-1.6,0.3-3.1,0.6-4.7,0.9c-1.5,0.3-3,0.4-4.2,0.4
		c-0.3,0.7-0.2,1.4,0.2,2.3c0.4,0.8,0.9,1.5,1.6,2.1c0.5,0.3,0.9,0.5,1.3,0.4c0.5,0,0.9-0.1,1.4-0.2c0.5-0.1,0.9-0.2,1.4-0.3
		c0.5-0.1,0.9,0,1.3,0.1c-0.4,0.5-0.6,1-0.5,1.6c0.1,0.6,0.5,1,1.4,1c0.4-0.7,0.9-1.3,1.4-2c0.5-0.6,1.1-1.2,1.9-1.7
		c0.8-0.5,1.8-0.9,3-1.3c1.2-0.3,2.7-0.5,4.5-0.5c1.5,0,2.7,0.2,3.7,0.7c1,0.5,2.1,1,3.3,1.7c-0.1-0.2-0.1-0.5-0.1-0.8
		c0-0.3,0.1-0.6,0.2-0.8c-1-0.8-2.2-1.5-3.6-2.1c-1.4-0.6-2.9-0.9-4.6-0.9c-1.8,0-3.6,0.2-5.4,0.7c-1.8,0.5-3.2,1.2-4.2,2
		C232.7,72.7,233.5,72,234.8,71.3z"/>
	<path class="st2" d="M217.4,72l-83.8,1.4c-0.1-0.6-0.4-1.2-0.9-1.7c-0.7-0.7-1.5-1-2.5-1c-1,0-1.8,0.4-2.5,1c-0.7,0.7-1,1.5-1,2.4
		c0,1,0.4,1.8,1,2.5c0.7,0.7,1.5,1,2.5,1c1,0,1.8-0.4,2.5-1c0.7-0.7,1-1.5,1-2.4l84.7,1.2C217.6,74.2,216.9,72.9,217.4,72z
		 M130,76.1c-0.3,0-0.5-0.1-0.5-0.5c0-0.4,0.1-0.6,0.5-0.6c0.4,0,0.5,0.2,0.5,0.6C130.5,75.9,130.4,76.1,130,76.1z"/>
</g>
</svg>
