<?xml version="1.0" encoding="utf-8"?>
<!-- Generator: Adobe Illustrator 19.2.1, SVG Export Plug-In . SVG Version: 6.00 Build 0)  -->
<svg version="1.1" id="Слой_1" xmlns="http://www.w3.org/2000/svg" xmlns:xlink="http://www.w3.org/1999/xlink" x="0px" y="0px"
	 viewBox="0 0 236.3 23.9" style="enable-background:new 0 0 236.3 23.9;" xml:space="preserve">
<style type="text/css">
	.st0{fill:#C5AC84;}
	.st1{fill-rule:evenodd;clip-rule:evenodd;fill:#C5AC84;}
</style>
<g>
	<path class="st0" d="M118.6,0c-0.9,0-1.7,0.3-2.3,1c-0.6,0.6-1,1.4-1,2.3c0,0.8,0.3,1.6,1,2.2c0.6,0.6,1.4,1,2.3,1
		c0.9,0,1.7-0.3,2.3-1c0.6-0.6,0.9-1.4,0.9-2.2c0-0.9-0.3-1.7-0.9-2.3C120.2,0.3,119.5,0,118.6,0L118.6,0z M121.1,7.7
		c-0.2,0.2-0.6,0.3-1.1,0.5c-0.5,0.1-1,0.2-1.4,0.1c0.9,2.1,1.5,4.2,1.6,6.3c0.1,2.1-0.3,3.9-1.2,5.2c0.3-1,0.4-2,0.5-3.1
		c0.1-1.1,0-2.2-0.1-3.2c-0.2-1.1-0.4-2.1-0.8-3c-0.4-1-0.9-1.8-1.6-2.6c0.1,1.2,0,2.3-0.4,3.3c-0.3,1-0.8,1.8-1.5,2.4
		c-0.6,0.6-1.4,1-2.4,1.1c-1,0.1-2-0.1-3.1-0.6c0,0.9,0.3,1.6,0.8,2.2c0.6,0.5,1.3,0.9,2.1,1c0.8,0.1,1.6,0,2.5-0.4
		c0.9-0.4,1.7-1.1,2.3-2.1c0.2,0.4,0.2,0.8,0.1,1.3c-0.1,0.4-0.3,0.8-0.4,1.2c-0.2,0.4-0.4,0.8-0.6,1.3c-0.2,0.4-0.3,0.8-0.4,1.2
		c-0.1,0.8,0,1.6,0.5,2.3c0.4,0.7,0.8,1.3,1.5,1.7c0.7-0.2,1.3-0.6,1.6-1.3c0.4-0.7,0.7-1.4,1-2.1c0.2-0.5,0.3-0.9,0.3-1.5
		c0-0.5,0-1.1,0-1.6c0-0.5,0-0.9,0-1.2c0-0.4,0.2-0.6,0.4-0.6c0.3,0,0.4,0,0.5,0.2c0.2,0.2,0.3,0.3,0.5,0.6c0.2,0.3,0.3,0.5,0.5,0.8
		c0.2,0.3,0.5,0.5,0.8,0.6c0.8,0.4,1.5,0.5,2.2,0.2c0.8-0.3,1.4-0.8,1.8-1.7c-1.3-0.5-2.3-1-3.1-1.8c-0.8-0.7-1.5-1.4-2-2.2
		c-0.5-0.8-0.9-1.6-1.1-2.4C121.2,9.1,121.1,8.4,121.1,7.7L121.1,7.7z M140,0.1c-0.4,0.7-0.8,1.3-1.3,1.8c-0.5,0.5-1.1,1.1-1.8,1.6
		c-0.7,0.5-1.6,0.8-2.7,1.1C133,5,131.7,5.1,130,5.2c-1.3,0-2.5-0.1-3.4-0.6c-0.9-0.5-1.9-1-3-1.6c0.1,0.2,0.1,0.5,0.1,0.8
		c0,0.3-0.1,0.6-0.2,0.8c0.9,0.7,2.1,1.3,3.3,1.9c1.3,0.5,2.7,0.8,4.2,0.8c1.7,0,3.3-0.2,5-0.6c1.6-0.5,2.9-1.1,3.8-1.8
		c-0.3,0.8-1,1.4-2.2,2c-1.2,0.6-2.6,1-4.2,1.2c-1.6,0.2-3.4,0.2-5.3-0.1c-1.9-0.3-3.7-0.8-5.4-1.7c1.1,1,2.3,1.8,3.6,2.2
		c1.3,0.4,2.7,0.7,4.1,0.7c1.4,0,2.9-0.1,4.4-0.3c1.5-0.3,2.9-0.5,4.4-0.8c1.5-0.3,2.9-0.6,4.3-0.9c1.4-0.3,2.7-0.4,3.9-0.4
		c0.3-0.6,0.2-1.3-0.2-2.1c-0.3-0.8-0.8-1.4-1.5-1.9c-0.4-0.3-0.8-0.4-1.2-0.4c-0.4,0-0.8,0.1-1.3,0.2c-0.5,0.1-0.9,0.2-1.3,0.3
		c-0.4,0.1-0.8,0-1.2-0.1c0.4-0.5,0.5-1,0.4-1.6C141.1,0.5,140.7,0.2,140,0.1L140,0.1z M145.4,1.7c0.7,0.5,1.3,1,1.9,1.8
		c0.5,0.8,0.8,1.5,0.7,2.2c0,0.5-0.1,1-0.4,1.5c-0.3,0.4-0.6,0.9-0.9,1.3c-0.3,0.4-0.5,0.8-0.8,1.2c-0.2,0.4-0.3,0.8-0.3,1.3
		c0.1,0.4,0.3,0.8,0.7,1c0.4,0.3,0.8,0.4,1.3,0.5c0.5,0.1,1.1,0.1,1.6,0c0.6-0.1,1.1-0.3,1.5-0.5c0.8-0.5,1.5-1.3,1.8-2.2
		c0.4-0.9,0.3-1.8-0.3-2.9c-0.1,0.7-0.3,1.3-0.7,1.9c-0.3,0.6-0.7,1.1-1.2,1.6c-0.5,0.4-1,0.8-1.5,0.9c-0.5,0.2-1.1,0.1-1.6-0.2
		c1.1-0.1,2-0.6,2.8-1.5c0.8-0.9,1.2-2,1.1-3.3c0-0.6-0.2-1.3-0.5-1.9c-0.3-0.6-0.8-1.1-1.3-1.6c-0.5-0.5-1.1-0.8-1.9-1
		C146.9,1.6,146.2,1.6,145.4,1.7L145.4,1.7z M118.3,1.4c0.3,0,0.5,0.1,0.5,0.4c0,0.4-0.2,0.5-0.5,0.5c-0.3,0-0.4-0.2-0.4-0.5
		C117.9,1.6,118,1.4,118.3,1.4L118.3,1.4z"/>
	<path class="st0" d="M3.3,1C2.4,1,1.6,1.3,1,1.9C0.3,2.6,0,3.4,0,4.2c0,0.8,0.3,1.6,1,2.2c0.6,0.6,1.4,1,2.3,1c0.9,0,1.7-0.3,2.3-1
		c0.6-0.6,0.9-1.4,0.9-2.2c0-0.9-0.3-1.7-0.9-2.3C5,1.3,4.2,1,3.3,1L3.3,1z M3.1,2.4c0.3,0,0.5,0.1,0.5,0.4c0,0.4-0.2,0.5-0.5,0.5
		c-0.3,0-0.4-0.2-0.4-0.5C2.6,2.5,2.8,2.4,3.1,2.4L3.1,2.4z"/>
	<path class="st0" d="M233.1,1.7c0.9,0,1.6,0.3,2.3,1c0.7,0.6,1,1.4,1,2.3c0,0.8-0.3,1.6-1,2.2c-0.6,0.7-1.4,1-2.3,1
		c-0.9,0-1.7-0.3-2.4-1c-0.6-0.6-0.9-1.4-0.9-2.2c0-0.9,0.3-1.6,0.9-2.3C231.4,2,232.2,1.7,233.1,1.7L233.1,1.7z M233.3,3.1
		c-0.3,0-0.5,0.2-0.5,0.5c0,0.3,0.2,0.5,0.5,0.5c0.3,0,0.5-0.2,0.5-0.5C233.7,3.2,233.6,3.1,233.3,3.1L233.3,3.1z"/>
	<path class="st0" d="M97.3,0.1c0.4,0.6,0.8,1.2,1.3,1.8c0.5,0.6,1,1.1,1.8,1.6c0.8,0.5,1.6,0.8,2.8,1.2c1.1,0.3,2.5,0.5,4.1,0.5
		c1.4,0,2.5-0.2,3.4-0.6c1-0.4,1.9-1,3-1.6c-0.1,0.2-0.1,0.5-0.1,0.8c0,0.3,0.1,0.5,0.2,0.8c-0.9,0.7-2,1.3-3.3,1.9
		c-1.3,0.5-2.7,0.8-4.2,0.8c-1.6,0-3.3-0.2-5-0.6c-1.7-0.5-2.9-1.1-3.8-1.8c0.3,0.8,1,1.4,2.2,2.1c1.2,0.6,2.6,1,4.2,1.2
		c1.6,0.2,3.4,0.1,5.3-0.1c1.9-0.3,3.7-0.8,5.4-1.7c-1.1,1.1-2.3,1.8-3.6,2.3c-1.3,0.4-2.6,0.6-4.1,0.6c-1.4,0-2.9-0.1-4.4-0.3
		c-1.5-0.3-2.9-0.5-4.4-0.8c-1.5-0.3-2.9-0.6-4.3-0.8c-1.4-0.3-2.7-0.4-3.9-0.4C89.5,6,89.6,5.3,90,4.5c0.3-0.8,0.8-1.4,1.5-1.9
		c0.4-0.3,0.8-0.4,1.2-0.4c0.4,0,0.8,0.1,1.3,0.2c0.4,0.1,0.8,0.2,1.3,0.3c0.4,0.1,0.8,0,1.2-0.1c-0.4-0.5-0.5-1-0.4-1.5
		C96.1,0.5,96.5,0.2,97.3,0.1L97.3,0.1z M91.8,1.7c-0.7,0.4-1.3,1-1.9,1.8c-0.5,0.8-0.8,1.5-0.7,2.2c0,0.5,0.1,1.1,0.4,1.5
		c0.3,0.5,0.5,0.9,0.8,1.3c0.3,0.4,0.6,0.8,0.8,1.3c0.3,0.4,0.3,0.8,0.3,1.3c-0.1,0.4-0.3,0.8-0.7,1c-0.4,0.3-0.8,0.4-1.3,0.5
		c-0.5,0.1-1,0.1-1.6,0c-0.5-0.1-1-0.3-1.5-0.5c-0.9-0.6-1.5-1.3-1.9-2.2C84.1,8.9,84.2,8,84.9,7c0.1,0.6,0.4,1.3,0.7,1.8
		c0.3,0.6,0.7,1.2,1.2,1.6c0.5,0.4,0.9,0.7,1.5,0.9c0.5,0.2,1,0.1,1.5-0.2c-1-0.1-2-0.5-2.8-1.5c-0.8-0.9-1.2-2-1.1-3.3
		c0-0.7,0.2-1.3,0.5-1.9c0.3-0.6,0.8-1.2,1.3-1.6c0.5-0.5,1.2-0.8,1.9-1C90.2,1.6,91,1.6,91.8,1.7L91.8,1.7z"/>
	<path class="st1" d="M151.9,3l81.3,1.2v0.7l-80.3,1.3C153.2,5.3,152.6,4.1,151.9,3L151.9,3z"/>
	<path class="st1" d="M84.5,3L3.3,4.2v0.7l80.3,1.3C83.1,5.3,83.7,4.1,84.5,3L84.5,3z"/>
</g>
</svg>
