<?xml version="1.0" encoding="utf-8"?>
<!-- Generator: Adobe Illustrator 19.2.1, SVG Export Plug-In . SVG Version: 6.00 Build 0)  -->
<svg version="1.1" id="Layer_1" xmlns="http://www.w3.org/2000/svg" xmlns:xlink="http://www.w3.org/1999/xlink" x="0px" y="0px"
	 viewBox="0 0 2500 2500" style="enable-background:new 0 0 2500 2500;" xml:space="preserve">
<style type="text/css">
	.st0{fill:#EFD026;}
</style>
<g>
	<path class="st0" d="M1771,1250c-72.3,0-130.4,58.6-130.4,130.4c0,71.8,58.6,130.4,130.4,130.4c71.8,0,130.4-58.6,130.4-130.4
		C1901.4,1308.6,1842.8,1250,1771,1250z M1771,1444.8c-35.6,0-64.9-28.8-64.9-64.9c0-35.6,28.8-64.9,64.9-64.9
		c35.6,0,64.9,29.3,64.9,64.9S1807.1,1444.8,1771,1444.8z"/>
	<path class="st0" d="M729,1250c-71.8,0-129.9,58.6-130.4,130.4c0,72.3,58.6,130.4,130.4,130.4s130.4-58.6,130.4-130.4
		C859.4,1308.6,800.8,1250,729,1250z M729,1444.8c-35.6,0-64.9-28.8-64.9-64.9c0-35.6,28.8-64.9,64.9-64.9
		c36.1,0,65.4,29.3,64.9,64.9C793.9,1415.5,765.1,1444.8,729,1444.8z"/>
	<path class="st0" d="M729,1054.7L729,1054.7c-179.7,0-325.2,146-325.7,325.7c0,180.2,145.5,325.7,325.7,325.7
		s325.7-146,325.7-325.7C1054.7,1200.2,908.7,1054.7,729,1054.7z M729,1575.7c-107.9,0-195.3-87.4-195.3-195.3
		s87.4-195.3,195.3-195.3l0,0c107.9,0,195.3,87.4,195.3,195.3S836.9,1575.7,729,1575.7z"/>
	<path class="st0" d="M1771,924.3c0,0-195.3-195.3-521-195.3l0,0c-325.7,0-521,195.3-521,195.8c260.7,0,521,325.2,521,650.9
		C1250,1250,1510.3,924.3,1771,924.3z"/>
	<path class="st0" d="M2187.5,0h-1875C140.1,0,0,140.1,0,312.5v1875C0,2359.9,140.1,2500,312.5,2500h1875
		c172.4,0,312.5-140.1,312.5-312.5v-1875C2500,140.1,2359.9,0,2187.5,0z M2226.6,1380.4c0,268.6-187,455.6-455.6,455.6
		c-152.3,0-301.3-85.4-390.6-195.3L1250,1835.9l-130.4-195.3c-89.4,109.9-238.3,195.3-390.6,195.3c-268.6,0-455.6-187-455.6-455.6
		c0-106.9,71.8-245.6,130.4-325.2c-130.4-32.7-130.4-130.4-130.4-130.4h325.7C794.4,729.5,989.7,664.1,1250,664.1l0,0
		c260.3,0,455.6,64.9,650.9,260.3h325.7c0,0,0,97.7-130.4,130.4C2154.8,1135.3,2226.6,1273.4,2226.6,1380.4z"/>
	<path class="st0" d="M1771,1054.7L1771,1054.7c-180.2,0-325.7,146-325.7,325.7s145.5,325.7,325.7,325.7
		c180.2,0,325.7-146,325.7-325.7C2096.7,1200.2,1950.7,1054.7,1771,1054.7z M1771,1575.7c-107.9,0-195.3-87.4-195.3-195.3
		s87.4-195.3,195.3-195.3l0,0c107.9,0,195.3,87.4,195.3,195.3S1878.9,1575.7,1771,1575.7z"/>
</g>
</svg>
